<svg width="256" height="256" viewBox="0 0 256 256" fill="none" xmlns="http://www.w3.org/2000/svg">
  <rect width="256" height="256" rx="56" fill="#04122A"/>
  <path d="M128 31L205 75.5V164.5L128 209L51 164.5V75.5L128 31Z" fill="url(#paint0_linear)" fill-opacity="0.18" stroke="#38D5FF" stroke-width="8"/>
  <path d="M81 121C81 95.0426 102.043 74 128 74C153.957 74 175 95.0426 175 121" stroke="#28F2A6" stroke-width="14" stroke-linecap="round"/>
  <path d="M74 150H182" stroke="#EDF7FF" stroke-width="13" stroke-linecap="round"/>
  <path d="M102 150L88 178" stroke="#38D5FF" stroke-width="11" stroke-linecap="round"/>
  <path d="M154 150L168 178" stroke="#38D5FF" stroke-width="11" stroke-linecap="round"/>
  <circle cx="128" cy="150" r="22" fill="#7C5CFF" stroke="#EDF7FF" stroke-width="9"/>
  <path d="M64 92H37" stroke="#28F2A6" stroke-width="9" stroke-linecap="round"/>
  <path d="M219 92H192" stroke="#28F2A6" stroke-width="9" stroke-linecap="round"/>
  <path d="M128 209V230" stroke="#38D5FF" stroke-width="9" stroke-linecap="round"/>
  <path d="M98 54L78 35" stroke="#EDF7FF" stroke-width="9" stroke-linecap="round"/>
  <path d="M158 54L178 35" stroke="#EDF7FF" stroke-width="9" stroke-linecap="round"/>
  <defs>
    <linearGradient id="paint0_linear" x1="51" y1="31" x2="205" y2="209" gradientUnits="userSpaceOnUse">
      <stop stop-color="#38D5FF"/>
      <stop offset="0.48" stop-color="#7C5CFF"/>
      <stop offset="1" stop-color="#28F2A6"/>
    </linearGradient>
  </defs>
</svg>
